<svg width="42" height="52" viewBox="0 0 42 52" fill="none" xmlns="http://www.w3.org/2000/svg">
<path d="M7.2906 16.1502V8.28686C4.05346 7.83142 2.7896 8.51786 1.52417 11.4322V47.0793C3.00712 50.2094 4.51054 50.3008 7.2906 50.2247H36.1227C38.4646 50.0547 39.4394 49.4478 40.3165 47.0793V11.4322C39.3294 8.68332 38.1499 8.04005 35.0743 8.28686V16.1502H7.2906Z" fill="white" stroke="white"/>
<path d="M15.1476 7.85088C15.5788 3.47606 16.5875 1.69639 21.5871 1.34888C26.0862 1.76733 26.9494 3.77506 28.0267 7.85088H34.4663V14.8947H8.17139V7.85088H15.1476Z" fill="#FFCC00"/>
<path d="M14.6297 7.76367H4C2.34314 7.76367 1 9.10682 1 10.7637V47.7499C1 49.4068 2.34315 50.7499 4 50.7499H37.8407C39.4976 50.7499 40.8407 49.4068 40.8407 47.7499V10.7637C40.8407 9.10682 39.4976 7.76367 37.8407 7.76367H27.7352" stroke="#FFCC00"/>
<mask id="path-4-inside-1_341_119" fill="white">
<path d="M28.7834 8.08887C28.7834 6.14242 28.0102 4.27569 26.6338 2.89933C25.2575 1.52298 23.3908 0.749756 21.4443 0.749756C19.4979 0.749756 17.6311 1.52298 16.2548 2.89933C14.8784 4.27568 14.1052 6.14242 14.1052 8.08887H15.1921C15.1921 6.43068 15.8508 4.84041 17.0233 3.66789C18.1959 2.49537 19.7861 1.83666 21.4443 1.83666C23.1025 1.83666 24.6928 2.49537 25.8653 3.66789C27.0378 4.84041 27.6965 6.43068 27.6965 8.08887H28.7834Z"/>
</mask>
<path d="M28.7834 8.08887C28.7834 6.14242 28.0102 4.27569 26.6338 2.89933C25.2575 1.52298 23.3908 0.749756 21.4443 0.749756C19.4979 0.749756 17.6311 1.52298 16.2548 2.89933C14.8784 4.27568 14.1052 6.14242 14.1052 8.08887H15.1921C15.1921 6.43068 15.8508 4.84041 17.0233 3.66789C18.1959 2.49537 19.7861 1.83666 21.4443 1.83666C23.1025 1.83666 24.6928 2.49537 25.8653 3.66789C27.0378 4.84041 27.6965 6.43068 27.6965 8.08887H28.7834Z" stroke="#FFCC00" stroke-width="2" mask="url(#path-4-inside-1_341_119)"/>
<path d="M8.17139 7.92114V15.0925H34.4663V7.92114" stroke="#FFCC00"/>
<path d="M21.3188 42.981C27.2597 42.981 32.0758 38.165 32.0758 32.224C32.0758 26.2831 27.2597 21.467 21.3188 21.467C15.3778 21.467 10.5618 26.2831 10.5618 32.224C10.5618 38.165 15.3778 42.981 21.3188 42.981Z" fill="#FFCC00"/>
<path d="M16.3275 25.041C16.0004 25.1846 15.8961 25.6295 16.1257 25.9064C16.2997 26.1131 16.3102 26.1131 17.8688 26.1131C19.4485 26.1131 19.6955 26.1376 20.1687 26.3268C20.7462 26.5581 21.289 27.0031 21.6126 27.5041C21.6996 27.6407 21.7727 27.7634 21.7727 27.7739C21.7727 27.7844 20.5514 27.7984 19.0623 27.8019C16.3832 27.8124 16.3484 27.8124 16.2544 27.886C16.07 28.0226 16.0144 28.1347 16.0144 28.3555C16.0144 28.5762 16.07 28.6884 16.2544 28.825C16.3484 28.8986 16.3832 28.8986 19.2397 28.9091L22.131 28.9161L22.1102 29.312C22.0371 30.7065 21.1673 31.7997 19.8242 32.1816C19.5807 32.2517 19.4589 32.2587 17.9559 32.2762C16.4041 32.2972 16.3449 32.3007 16.2544 32.3708C16.0249 32.5425 15.9413 32.8123 16.0422 33.054C16.077 33.1416 16.9364 33.951 19.2293 36.0463C20.9516 37.6264 22.4163 38.9404 22.4789 38.9684C22.6216 39.028 22.8652 38.9999 22.9834 38.9124C23.2061 38.7441 23.2897 38.4709 23.1888 38.2327C23.154 38.145 22.4407 37.4723 20.5758 35.766L18.0116 33.4184L18.8222 33.3974C19.3789 33.3834 19.7129 33.3589 19.8868 33.3168C21.5639 32.9385 22.7921 31.7016 23.1505 30.0303C23.1783 29.8902 23.2131 29.5818 23.2236 29.3471L23.2444 28.9196L24.4552 28.9091C25.6138 28.8986 25.6695 28.8951 25.76 28.825C25.9444 28.6884 26 28.5762 26 28.3555C26 28.1347 25.9444 28.0226 25.76 27.886C25.6695 27.8159 25.6138 27.8124 24.3335 27.8019L23.0044 27.7914L22.8547 27.462C22.6668 27.0486 22.4198 26.6737 22.131 26.3583L21.9083 26.1166L23.7872 26.1061C25.6208 26.0956 25.666 26.0956 25.76 26.022C25.9444 25.8853 26 25.7732 26 25.5525C26 25.3318 25.9444 25.2196 25.76 25.083C25.666 25.0094 25.6521 25.0094 21.049 25.0024C17.2634 24.9954 16.4145 25.0024 16.3275 25.041Z" fill="black"/>
</svg>
