<svg width="56" height="56" viewBox="0 0 56 56" fill="none" xmlns="http://www.w3.org/2000/svg">
<circle cx="27.5" cy="27.5" r="17.5" fill="black"/>
<path d="M26.6703 11.4624C26.7599 11.4614 26.7599 11.4614 26.8512 11.4604C28.7491 11.4439 30.5009 11.5962 32.3275 12.1458C32.4114 12.1709 32.4114 12.1709 32.497 12.1965C34.6819 12.867 36.6875 14.0674 38.3567 15.6167C38.4501 15.6977 38.5434 15.7783 38.6372 15.8586C39.0727 16.2387 39.4479 16.6445 39.8101 17.0948C39.9071 17.2144 40.0053 17.3326 40.1063 17.4488C42.2263 19.9132 43.5682 23.4182 43.598 26.6672C43.5988 26.7267 43.5992 26.7861 43.6 26.8474C43.6351 30.8315 42.5789 34.6185 39.9647 37.7102C39.9349 37.7459 39.9051 37.7816 39.8741 37.8181C39.28 38.5279 38.667 39.1876 37.9393 39.7655C37.8177 39.8622 37.6974 39.9604 37.5787 40.0607C34.8113 42.3891 31.1384 43.5501 27.5501 43.5425C27.4854 43.5425 27.4207 43.5425 27.354 43.5425C26.2891 43.5397 25.2653 43.478 24.2215 43.2506C24.1554 43.2361 24.0893 43.2217 24.0213 43.2073C21.265 42.5888 18.7208 41.2999 16.6514 39.3789C16.5582 39.2979 16.4647 39.2173 16.3709 39.1371C15.9359 38.7573 15.5611 38.3518 15.1988 37.9023C15.0989 37.7788 14.9976 37.656 14.8947 37.5353C14.1773 36.6879 13.6172 35.7523 13.1009 34.7733C13.0776 34.73 13.0543 34.6867 13.0303 34.6418C12.2821 33.2301 11.8075 31.6059 11.5601 30.0342C11.5479 29.9572 11.5356 29.8798 11.523 29.8004C11.4158 29.0485 11.3993 28.3029 11.401 27.5438C11.401 27.4793 11.401 27.4148 11.4011 27.3484C11.4038 26.2873 11.4658 25.2672 11.694 24.2272C11.7084 24.1614 11.7228 24.0955 11.7376 24.0277C12.358 21.2815 13.6519 18.7465 15.5796 16.6847C15.6608 16.5918 15.7418 16.4986 15.8224 16.4051C18.4194 13.4428 22.7354 11.4982 26.6703 11.4624ZM22.3695 19.724C22.0914 20.0864 22.0256 20.3036 22.0778 20.7563C22.1826 21.0798 22.3662 21.2736 22.6679 21.4363C22.9666 21.5466 23.2795 21.5266 23.5942 21.5241C23.7064 21.5251 23.7064 21.5251 23.8208 21.5261C24.059 21.528 24.2972 21.5282 24.5355 21.5281C24.7726 21.5283 25.0096 21.529 25.2467 21.5308C25.3938 21.5319 25.5409 21.5321 25.688 21.5312C26.6272 21.5376 27.3998 21.7806 28.0777 22.4417C28.2004 22.5687 28.2959 22.668 28.375 22.8255C28.3082 22.8249 28.2414 22.8243 28.1726 22.8237C27.5418 22.8183 26.911 22.8143 26.2802 22.8117C25.9559 22.8102 25.6317 22.8084 25.3074 22.8054C24.9943 22.8024 24.6811 22.8009 24.3679 22.8001C24.2487 22.7997 24.1295 22.7987 24.0103 22.7973C23.8427 22.7953 23.6752 22.795 23.5076 22.7952C23.4588 22.7942 23.41 22.7932 23.3597 22.7923C22.9969 22.7951 22.7156 22.8917 22.4127 23.0925C22.1952 23.3369 22.0928 23.5656 22.0667 23.8877C22.0941 24.2342 22.2707 24.4898 22.5174 24.7237C22.8221 24.9183 23.1021 24.9038 23.4518 24.9023C23.5391 24.9023 23.5391 24.9023 23.6281 24.9023C23.8206 24.9022 24.013 24.9017 24.2055 24.9012C24.3389 24.9011 24.4723 24.901 24.6057 24.9009C24.9569 24.9007 25.3081 24.9 25.6593 24.8993C26.0176 24.8986 26.376 24.8983 26.7343 24.8979C27.4375 24.8972 28.1407 24.8961 28.8439 24.8947C28.8033 25.021 28.7624 25.1472 28.7212 25.2733C28.6984 25.3435 28.6756 25.4138 28.6521 25.4862C28.4036 26.1692 27.957 26.6994 27.3157 27.0515C26.7018 27.3167 26.0849 27.3931 25.4218 27.3891C25.2709 27.3903 25.12 27.3915 24.969 27.3927C24.7345 27.3933 24.5001 27.3936 24.2656 27.3935C24.0369 27.3937 23.8082 27.3955 23.5796 27.3975C23.5098 27.397 23.44 27.3964 23.3681 27.3958C22.9458 27.4001 22.6884 27.4462 22.3457 27.6982C22.107 27.9837 22.0476 28.2444 22.0422 28.6122C22.1297 28.9911 22.4351 29.2775 22.6932 29.5546C22.7415 29.6063 22.7415 29.6063 22.7908 29.6597C23.0371 29.9232 23.2918 30.1774 23.5492 30.4305C23.6746 30.5572 23.7916 30.6871 23.9075 30.8227C24.1126 31.0613 24.3322 31.2823 24.5565 31.5029C24.8176 31.7599 25.0661 32.021 25.3041 32.2997C25.4611 32.475 25.6281 32.6394 25.7958 32.8042C26.0031 33.008 26.2057 33.2129 26.3945 33.4343C26.6288 33.7082 26.8846 33.958 27.1415 34.2107C27.3323 34.3988 27.5146 34.5901 27.6883 34.7942C28.03 35.1932 28.3502 35.5502 28.8942 35.5951C29.1999 35.5895 29.4154 35.5057 29.6478 35.3075C29.8921 35.03 29.946 34.7553 29.9514 34.3936C29.8643 34.0166 29.5613 33.731 29.3045 33.4551C29.2725 33.4206 29.2405 33.3862 29.2075 33.3509C28.943 33.0677 28.6686 32.7954 28.3925 32.5235C28.2592 32.3888 28.134 32.2516 28.0107 32.1076C27.8188 31.8838 27.6137 31.6761 27.4036 31.4696C27.1962 31.2654 26.9936 31.0605 26.8049 30.8395C26.5644 30.558 26.3012 30.3005 26.036 30.0427C25.8804 29.8899 25.7499 29.7487 25.6283 29.567C25.7029 29.5614 25.7776 29.5554 25.8544 29.5498C27.425 29.4122 28.8128 28.8833 29.8655 27.6521C30.4632 26.8594 30.9514 25.9048 30.9207 24.8947C30.9789 24.8978 31.0371 24.9009 31.097 24.9041C31.5783 24.9235 31.5783 24.9235 32.0302 24.782C32.3271 24.5014 32.5093 24.2917 32.5494 23.8768C32.5172 23.4923 32.371 23.2638 32.093 23.0007C31.7868 22.8023 31.4954 22.8169 31.1384 22.8213C31.0916 22.8216 31.045 22.8219 30.9968 22.8222C30.8821 22.823 30.7674 22.8242 30.6527 22.8255C30.6445 22.759 30.6445 22.759 30.6362 22.6912C30.5691 22.4261 30.4459 22.2084 30.3135 21.9703C30.2883 21.924 30.263 21.8778 30.237 21.8301C30.175 21.7167 30.1124 21.6036 30.0498 21.4905C30.1004 21.4919 30.1511 21.4933 30.2033 21.4948C30.434 21.5003 30.6647 21.5038 30.8955 21.5072C30.9752 21.5094 31.0549 21.5117 31.1371 21.514C31.7202 21.5233 31.7202 21.5233 32.1935 21.2235C32.419 20.9746 32.5195 20.807 32.5452 20.4684C32.5214 20.1179 32.4242 19.9131 32.1684 19.6716C31.8757 19.4772 31.638 19.4047 31.2868 19.4039C31.1762 19.4032 31.1762 19.4032 31.0634 19.4025C30.9431 19.4028 30.9431 19.4028 30.8203 19.403C30.7353 19.4026 30.6503 19.4023 30.5628 19.402C30.3301 19.4011 30.0974 19.401 29.8647 19.4012C29.6703 19.4013 29.4758 19.401 29.2814 19.4006C28.8225 19.3999 28.3637 19.3999 27.9049 19.4003C27.432 19.4007 26.9591 19.3998 26.4862 19.3984C26.0798 19.3972 25.6733 19.3968 25.2669 19.3971C25.0243 19.3972 24.7817 19.397 24.5392 19.3961C24.2686 19.3951 23.9981 19.3957 23.7276 19.3965C23.6475 19.396 23.5674 19.3955 23.4849 19.3949C23.046 19.3977 22.7062 19.4109 22.3695 19.724Z" fill="#FFCC00"/>
<path d="M52.4776 24.9384C52.4881 25.0391 52.4987 25.1399 52.5095 25.2437C52.6795 26.9022 52.7506 28.5064 52.5661 30.1688C52.5488 30.3266 52.5488 30.3266 52.5311 30.4876C51.8757 36.0817 49.3551 41.4339 45.3086 45.3788C45.2166 45.4708 45.1247 45.5629 45.0299 45.6577C44.15 46.5216 43.198 47.2837 42.2129 48.0242C42.1513 48.0706 42.0896 48.1171 42.0261 48.1649C38.639 50.6773 34.4691 52.0502 30.3128 52.4781C30.1617 52.4939 30.1617 52.4939 30.0076 52.51C28.3494 52.6799 26.7456 52.751 25.0836 52.5663C24.9258 52.549 24.9258 52.549 24.7648 52.5313C22.6802 52.2869 20.6308 51.8173 18.6858 51.0228C18.4813 50.9402 18.2756 50.8616 18.0692 50.7838C15.0112 49.6144 12.1613 47.6367 9.87668 45.3065C9.73819 45.1681 9.73819 45.1681 9.5969 45.027C8.73378 44.1468 7.97193 43.195 7.23177 42.21C7.18533 42.1483 7.13889 42.0867 7.09105 42.0231C5.37049 39.7025 4.21286 36.9396 3.43499 34.1727C3.39722 34.041 3.35946 33.9093 3.32056 33.7736C3.09089 32.8908 2.9686 32.0007 2.86119 31.0958C2.84593 30.9767 2.83066 30.8576 2.81493 30.735C2.80288 30.6226 2.79082 30.5101 2.7784 30.3943C2.76695 30.2936 2.7555 30.1929 2.7437 30.0891C2.77232 29.7361 2.89169 29.5993 3.13926 29.3529C3.41736 29.2468 3.67808 29.2368 3.97349 29.2652C4.2688 29.4269 4.39503 29.5379 4.51777 29.8515C4.59743 30.1644 4.64412 30.4761 4.6867 30.796C5.43588 36.3253 8.20886 41.4717 12.4624 45.0813C12.7251 45.3235 12.7251 45.3235 12.8601 45.5429C13.0143 45.774 13.1575 45.7952 13.4165 45.8835C13.5503 45.9858 13.6799 46.0937 13.8061 46.2051C17.7079 49.4369 23.6251 51.1977 28.6399 50.7362C28.7191 50.7283 28.7982 50.7205 28.8798 50.7124C28.9649 50.7042 29.0501 50.696 29.1378 50.6875C31.7975 50.4316 31.7975 50.4316 34.3865 49.7958C34.532 49.7491 34.532 49.7491 34.6805 49.7014C38.7116 48.3795 42.6144 45.9802 45.2554 42.6076C45.5121 42.2993 45.5121 42.2993 45.7207 42.2773C45.7412 42.2129 45.7618 42.1485 45.7829 42.0821C45.8931 41.8198 46.0192 41.6613 46.2068 41.4485C49.8044 37.1031 51.1736 30.8778 50.6894 25.3737C50.1182 19.5149 47.2821 13.9732 42.7935 10.1641C42.5308 9.92186 42.5308 9.92186 42.3957 9.70249C42.2416 9.47134 42.0984 9.45012 41.8394 9.36181C41.7056 9.25953 41.576 9.15168 41.4498 9.04026C37.3707 5.66159 31.3242 4.05675 26.118 4.54292C25.8398 4.57057 25.5618 4.59976 25.2838 4.62964C25.1875 4.63985 25.0912 4.65006 24.992 4.66058C19.8219 5.2203 15.1682 7.45435 11.4454 11.08C11.5281 11.0728 11.6108 11.0657 11.696 11.0583C12.0719 11.0267 12.4479 10.9973 12.824 10.9681C12.9541 10.9567 13.0843 10.9454 13.2184 10.9338C13.407 10.9196 13.407 10.9196 13.5994 10.9051C13.7727 10.891 13.7727 10.891 13.9495 10.8767C14.3094 10.8897 14.5184 10.9623 14.8261 11.1465C15.0544 11.4971 15.1079 11.6791 15.0644 12.0969C14.9577 12.3981 14.9577 12.3981 14.6668 12.6396C14.4053 12.6953 14.4053 12.6953 14.0858 12.7313C13.9663 12.7452 13.8467 12.7591 13.7235 12.7734C13.5941 12.7873 13.4648 12.8011 13.3315 12.8153C13.1324 12.8373 13.1324 12.8373 12.9293 12.8598C12.6483 12.8904 12.3672 12.9205 12.0861 12.9499C11.7262 12.9877 11.3667 13.0284 11.0072 13.0698C10.6638 13.1088 10.3201 13.1448 9.97646 13.1812C9.84746 13.1962 9.71845 13.2113 9.58554 13.2268C9.46543 13.2388 9.34532 13.2508 9.22156 13.2631C9.11602 13.2745 9.01048 13.2859 8.90174 13.2977C8.53578 13.2687 8.40502 13.1695 8.15769 12.9019C7.97245 12.504 7.99449 12.176 8.0395 11.7451C8.05243 11.6167 8.06536 11.4882 8.07869 11.356C8.09382 11.2166 8.10901 11.0773 8.12425 10.938C8.13932 10.7943 8.15433 10.6505 8.16928 10.5067C8.20081 10.2057 8.23308 9.9049 8.2659 9.6041C8.30779 9.21952 8.34787 8.83477 8.38738 8.44993C8.41805 8.15307 8.44969 7.85632 8.4816 7.55959C8.49674 7.41781 8.51158 7.27599 8.52614 7.13415C8.54667 6.93547 8.56862 6.73694 8.59062 6.53842C8.60273 6.42563 8.61484 6.31285 8.62732 6.19664C8.70818 5.76547 8.85466 5.44182 9.13014 5.10155C9.57255 4.99512 9.78334 4.98358 10.1883 5.20123C10.5766 5.6558 10.5372 6.10606 10.5027 6.67987C10.4731 7.01942 10.4402 7.35837 10.4036 7.69724C10.3806 7.91119 10.3588 8.12523 10.3372 8.33933C10.2288 9.38305 10.2288 9.38305 10.1339 9.63602C10.2354 9.54502 10.3368 9.45402 10.4414 9.36026C13.528 6.61113 17.0556 4.48902 21.0782 3.42394C21.1935 3.39319 21.3089 3.36245 21.4277 3.33077C22.589 3.03973 23.7533 2.88977 24.9431 2.76727C25.0438 2.75674 25.1445 2.74621 25.2483 2.73536C26.9065 2.56541 28.5103 2.49436 30.1723 2.67902C30.2775 2.69056 30.3827 2.70211 30.491 2.714C32.5757 2.95847 34.6251 3.42805 36.5701 4.22251C36.7746 4.30515 36.9803 4.38374 37.1866 4.46155C39.4037 5.30937 41.4153 6.5986 43.283 8.05009C43.3859 8.12953 43.4888 8.20897 43.5949 8.29082C44.2753 8.82797 44.8954 9.40597 45.4944 10.0322C45.5698 10.1109 45.5698 10.1109 45.6466 10.1912C46.9878 11.6029 48.1658 13.1392 49.1599 14.8142C49.2235 14.9209 49.2235 14.9209 49.2883 15.0298C50.4019 16.9221 51.2588 18.9491 51.8209 21.0726C51.8516 21.188 51.8824 21.3033 51.9141 21.4222C52.2051 22.5838 52.3551 23.7483 52.4776 24.9384Z" fill="black"/>
<path d="M43.717 10.5969L10.1372 44.9235" stroke="black" stroke-width="2"/>
</svg>
