<svg width="41" height="35" viewBox="0 0 41 35" fill="none" xmlns="http://www.w3.org/2000/svg">
<path fill-rule="evenodd" clip-rule="evenodd" d="M12.7764 33.5H31.813C33.4072 33.5 34.6872 32.0949 35.7296 30.6701C39.6569 25.3025 40.5002 17.2798 40.5002 15.279C40.5002 13.2783 38.9181 12.5411 36.356 12.5411H24.9384C26.2041 9.9311 27.9735 6.8176 27.9735 4.6087C27.9735 2.2172 27.0242 0.5 24.9002 0.5C22.7763 0.5 22.2313 2.1863 21.471 3.8295C20.0703 6.8566 17.1147 13.7023 12.7764 13.7023V33.5Z" fill="white" stroke="#1E1E1E"/>
<path fill-rule="evenodd" clip-rule="evenodd" d="M0.5 34.5H12.9675V11.5H0.5V34.5Z" fill="#ffcc00" stroke="#1E1E1E"/>
<path fill-rule="evenodd" clip-rule="evenodd" d="M6.66599 27.1862L9.15742 29.4884L6.66599 31.7906L4.17456 29.4884L6.66599 27.1862Z" fill="white" stroke="#1E1E1E"/>
<path fill-rule="evenodd" clip-rule="evenodd" d="M6.66599 14.1862L9.15742 16.4884L6.66599 18.7906L4.17456 16.4884L6.66599 14.1862Z" fill="white" stroke="#1E1E1E"/>
</svg>
