<svg width="52" height="48" viewBox="0 0 52 48" fill="none" xmlns="http://www.w3.org/2000/svg">
<path d="M13.8572 8.85714V4C13.8572 2.34314 15.2003 1 16.8572 1H35.1429C36.7997 1 38.1429 2.34315 38.1429 4V8.85714" stroke="black"/>
<path d="M1 43.7144L1 12.5715C1 10.9147 2.34315 9.57153 4 9.57153H48C49.6569 9.57153 51 10.9147 51 12.5715V43.7144C51 45.3712 49.6569 46.7144 48 46.7144H4C2.34315 46.7144 1 45.3712 1 43.7144Z" fill="white" stroke="black"/>
<rect x="20.574" y="20.124" width="10.8519" height="7.46561" rx="0.5" fill="#FFCC00" stroke="black"/>
<line x1="1.74379" y1="10.7538" x2="20.3681" y2="24.2988" stroke="black"/>
<line y1="-0.5" x2="23.0289" y2="-0.5" transform="matrix(-0.808736 0.588172 0.588172 0.808736 50.5503 11.1582)" stroke="black"/>
<path d="M27 16.5C34.4753 16.5 40.5 22.3129 40.5 29.4404C40.4998 36.5678 34.4751 42.3799 27 42.3799C19.5249 42.3799 13.5002 36.5678 13.5 29.4404C13.5 22.3129 19.5247 16.5 27 16.5Z" fill="#FFCC00" stroke="black"/>
<path d="M26.8526 22.9904C26.6449 23.2722 26.6152 23.9842 26.6152 27.7814C26.6152 32.602 26.6597 32.8987 27.4162 32.8987C28.0837 32.8987 28.0985 32.8097 28.0985 27.7517C28.0985 23.1832 28.0837 22.9607 27.8167 22.8124C27.3717 22.5751 27.1047 22.6344 26.8526 22.9904Z" fill="black"/>
<path d="M26.9538 34.9763C26.2863 35.2433 26.138 36.0443 26.6275 36.6672C27.2208 37.4089 28.4371 36.9936 28.4371 36.0294C28.4371 35.2581 27.6509 34.6945 26.9538 34.9763Z" fill="black"/>
</svg>
